<svg width="24" height="30" viewBox="0 0 24 30" fill="none" xmlns="http://www.w3.org/2000/svg">
<path d="M11.6644 30C9.5597 28.2047 7.60884 26.2366 5.8322 24.1161C3.16605 20.9318 1.46454e-06 16.1894 1.46454e-06 11.6702C-0.00115481 9.36229 0.682382 7.10587 1.96411 5.18655C3.24583 3.26722 5.06813 1.77127 7.20038 0.888006C9.33262 0.0047436 11.679 -0.226122 13.9425 0.224626C16.206 0.675374 18.2849 1.78747 19.9161 3.42018C21.0022 4.5014 21.863 5.78728 22.4488 7.2034C23.0346 8.61952 23.3337 10.1378 23.3288 11.6702C23.3288 16.1894 20.1627 20.9318 17.4966 24.1161C15.7199 26.2366 13.7691 28.2047 11.6644 30ZM11.6644 6.67122C10.3386 6.67122 9.06705 7.1979 8.12955 8.1354C7.19205 9.0729 6.66537 10.3444 6.66537 11.6702C6.66537 12.9961 7.19205 14.2676 8.12955 15.2051C9.06705 16.1426 10.3386 16.6693 11.6644 16.6693C12.9902 16.6693 14.2617 16.1426 15.1992 15.2051C16.1367 14.2676 16.6634 12.9961 16.6634 11.6702C16.6634 10.3444 16.1367 9.0729 15.1992 8.1354C14.2617 7.1979 12.9902 6.67122 11.6644 6.67122Z" fill="black"/>
</svg>
