<svg xmlns="http://www.w3.org/2000/svg" viewBox="0 0 124.64 109.41"><defs><style>.cls-1,.cls-3,.cls-4{fill:#a8de00;}.cls-1,.cls-2,.cls-3{stroke:#fff;stroke-width:0.5px;}.cls-1{stroke-miterlimit:10;}.cls-2{fill:#006f69;}.cls-2,.cls-3{stroke-linecap:round;stroke-linejoin:round;}</style></defs><title>icon_howworks_3</title><g id="Layer_2" data-name="Layer 2"><g id="specifications"><path class="cls-1" d="M95,17.88a1.56,1.56,0,0,0-1-.76,1.64,1.64,0,0,0-1.23.16L82.83,23a1.63,1.63,0,0,0-.75,1,1.62,1.62,0,0,0,1.56,2,1.67,1.67,0,0,0,.81-.22l9.91-5.72A1.62,1.62,0,0,0,95,17.88Z"/><path class="cls-1" d="M41.81,23,31.9,17.28a1.64,1.64,0,0,0-1.23-.16,1.56,1.56,0,0,0-1,.76,1.62,1.62,0,0,0,.59,2.21l9.91,5.72A1.67,1.67,0,0,0,41,26a1.62,1.62,0,0,0,.81-3Z"/><path class="cls-1" d="M82.08,5.26a1.63,1.63,0,0,0-3-.39L73.4,14.78a1.61,1.61,0,1,0,2.8,1.61l5.72-9.9A1.64,1.64,0,0,0,82.08,5.26Z"/><path class="cls-1" d="M45.53,4.87a1.63,1.63,0,0,0-2.21-.59,1.59,1.59,0,0,0-.76,1,1.64,1.64,0,0,0,.16,1.23l5.72,9.9a1.63,1.63,0,0,0,1.4.81A1.61,1.61,0,0,0,51.41,16a1.63,1.63,0,0,0-.16-1.22Z"/><path class="cls-1" d="M62.32.25A1.63,1.63,0,0,0,60.7,1.87V13.28a1.62,1.62,0,1,0,3.24,0V1.87A1.63,1.63,0,0,0,62.32.25Z"/><path class="cls-2" d="M67.91,22.65c3.89,0,5.19,3.89,5.19,3.89s1.29,3.89-2.6,7.78a56.88,56.88,0,0,1-7.77,6.48,64.64,64.64,0,0,1-7.57-6.48c-3.89-3.89-2.59-7.78-2.59-7.78s1.29-3.89,5.18-3.89a5.63,5.63,0,0,1,5.07,3.61h0c.12,0,1.28-3.61,5.08-3.61m0-2.85a7.77,7.77,0,0,0-5.08,1.81,7.74,7.74,0,0,0-5.08-1.81,8.46,8.46,0,0,0-7.89,5.84c-.69,2.07-.77,6.64,3.28,10.69a66.87,66.87,0,0,0,8,6.8,2.8,2.8,0,0,0,1.64.52,2.84,2.84,0,0,0,1.58-.48,59.06,59.06,0,0,0,8.21-6.84c4-4,4-8.62,3.28-10.69a8.46,8.46,0,0,0-7.89-5.84Z"/><path class="cls-3" d="M124.14,64.43,112.79,47.78a.86.86,0,0,0-.13-.14.48.48,0,0,0-.09-.11l-.16-.11-.12-.09-.2-.08-.13,0a2,2,0,0,0-.35,0H62.2L13,47h0a1.55,1.55,0,0,0-.21,0h0a1.66,1.66,0,0,0-.47.17l-.06,0a1.07,1.07,0,0,0-.22.15c-.06,0-.08.12-.13.18l0,0L.5,64.31a1.43,1.43,0,0,0,1.18,2.23h.15l9.71-1-.11,42a1.43,1.43,0,0,0,1.42,1.43l98.37.26h0a1.45,1.45,0,0,0,1-.41,1.42,1.42,0,0,0,.42-1l.11-42.15,10,1.06H123a1.43,1.43,0,0,0,1.18-2.23ZM62.19,50l47.15.12-6.21,13.68H21.73L15.46,50ZM4.59,63.37l7-10.24,0,9.51Zm9.7,42.69.13-51.45,5.09,11.21a1.44,1.44,0,0,0,1.3.84h83.24a1.41,1.41,0,0,0,1.29-.84l4.6-10.1-.14,50.59Zm98.48-43.33,0-9.88,7.26,10.64Z"/><path class="cls-4" d="M24,80.38a1.14,1.14,0,1,1-1.18,1.13A1.13,1.13,0,0,1,24,80.38Zm0,4.41a1.14,1.14,0,0,1,1.18,1.14A1.18,1.18,0,1,1,24,84.79Z"/><path class="cls-4" d="M29.84,78.3a4.32,4.32,0,1,1,0,8.63H26.6l0-8.63Zm-.14,6.85a2.54,2.54,0,0,0,0-5.08H28.66v5.08Z"/><path class="cls-4" d="M38.49,85.61a2.48,2.48,0,0,0,1.72-.76L41.28,86a3.73,3.73,0,0,1-2.82,1.15,3.35,3.35,0,1,1-.08-6.68,3.25,3.25,0,0,1,3.37,3.24,2.34,2.34,0,0,1-.1.66l-4.8,0A1.55,1.55,0,0,0,38.49,85.61Zm-1.6-2.56h2.84a1.35,1.35,0,0,0-1.38-1.15A1.46,1.46,0,0,0,36.89,83.05Z"/><path class="cls-4" d="M47.41,86.3a2.73,2.73,0,0,1-1.92.73,3.12,3.12,0,0,1-3.1-3.26,3.19,3.19,0,0,1,3.11-3.34,2.87,2.87,0,0,1,1.93.75v-.59h2l0,6a3.15,3.15,0,0,1-3.44,3.26,4.43,4.43,0,0,1-3.1-1.16l1-1.33a2.71,2.71,0,0,0,1.94.8,1.43,1.43,0,0,0,1.62-1.45Zm0-1.81V83.08a1.62,1.62,0,0,0-3.07.69,1.62,1.62,0,0,0,3.07.72Z"/><path class="cls-4" d="M54.85,86.34a2.17,2.17,0,0,1-1.68.8,2.43,2.43,0,0,1-2.5-2.54v-4h2v3.74a1,1,0,0,0,1.06,1.06,1.4,1.4,0,0,0,1.13-.72V80.61h2l0,6.39h-2Z"/><path class="cls-4" d="M58.75,84.92a2.17,2.17,0,0,0,1.59.73c.49,0,.78-.19.78-.51s-.24-.51-1-.66c-1.34-.29-2.06-1-2.06-2.09s1-1.92,2.38-1.92a3.73,3.73,0,0,1,2.33.89l-.88,1.16A2,2,0,0,0,60.64,82c-.38,0-.64.16-.64.43s.25.53.89.66c1.46.31,2.15,1,2.14,2.09s-1,2-2.53,2a3.6,3.6,0,0,1-2.66-1.07Z"/><path class="cls-4" d="M66.32,84.71c0,.51.23.75.81.75.21,0,.49,0,.66,0v1.62a3.73,3.73,0,0,1-1.09.12,2.11,2.11,0,0,1-2.36-2.26V82.35h-.93V80.63h.92V79l2-.16v1.85h1.4v1.71h-1.4Z"/><path class="cls-4" d="M73.38,86.45a2.79,2.79,0,0,1-1.92.74,3.35,3.35,0,0,1,0-6.69,2.79,2.79,0,0,1,1.92.75v-.59h1.95l0,6.39h-2Zm0-1.89V83.15a1.61,1.61,0,0,0-3.06.69,1.56,1.56,0,0,0,1.6,1.61A1.59,1.59,0,0,0,73.39,84.56Z"/><path class="cls-4" d="M80.52,87.06l0-8.63h3.34a2.33,2.33,0,0,1,2.61,2.34,1.82,1.82,0,0,1-1.08,1.74,2,2,0,0,1,1.5,2,2.47,2.47,0,0,1-2.66,2.51Zm3.18-7H82.52v1.79H83.7a.9.9,0,0,0,0-1.79ZM84,83.45H82.51v2H84a1,1,0,0,0,0-2Z"/><path class="cls-4" d="M91.21,80.55a3.35,3.35,0,1,1-3.58,3.34A3.41,3.41,0,0,1,91.21,80.55Zm0,5a1.61,1.61,0,1,0-1.6-1.61A1.56,1.56,0,0,0,91.2,85.5Z"/><path class="cls-4" d="M99.34,87.11l-1.13-2-1.14,2H95l2-3.25-1.78-3.14h2.12l1,1.91,1-1.91h2.12l-1.8,3.13,1.94,3.26Z"/></g></g></svg>