<svg xmlns="http://www.w3.org/2000/svg" viewBox="0 0 132.88 86.71"><defs><style>.cls-1{fill:#a8de00;stroke-linecap:round;stroke-linejoin:round;stroke-width:0.5px;}.cls-1,.cls-4{stroke:#fff;}.cls-2{fill:#006f69;}.cls-3{fill:#fff;}.cls-4{fill:none;stroke-miterlimit:10;}</style></defs><title>icon_howworks_1</title><g id="Layer_2" data-name="Layer 2"><g id="specifications"><path class="cls-1" d="M131.06,35.81h-3v-3a1.57,1.57,0,0,0-3.14,0v3h-3A1.58,1.58,0,0,0,122,39h3v3a1.57,1.57,0,0,0,3.14,0V39h3a1.58,1.58,0,0,0,0-3.15Z"/><path class="cls-1" d="M49.2,4.78h-3v-3a1.57,1.57,0,0,0-3.14,0v3h-3a1.58,1.58,0,0,0,0,3.15h3v3a1.57,1.57,0,0,0,3.14,0v-3h3a1.58,1.58,0,0,0,0-3.15Z"/><path class="cls-1" d="M10.89,50.38h-3v-3a1.58,1.58,0,0,0-3.15,0v3h-3a1.58,1.58,0,0,0,0,3.15h3v3a1.58,1.58,0,0,0,3.15,0v-3h3a1.58,1.58,0,0,0,0-3.15Z"/><path class="cls-1" d="M82.85,51.53a1.57,1.57,0,0,0-2.25,2.2l3.93,4a1.55,1.55,0,0,0,1.12.48,1.57,1.57,0,0,0,1.13-2.68Z"/><path class="cls-1" d="M93.46,48.53h0a1.57,1.57,0,0,0-1.57,1.57l0,5.62a1.57,1.57,0,0,0,1.57,1.58h0A1.56,1.56,0,0,0,95,55.74l0-5.63A1.58,1.58,0,0,0,93.46,48.53Z"/><path class="cls-1" d="M84.53,62.59h0l-5.62,0a1.58,1.58,0,0,0,0,3.15h0l5.62,0a1.58,1.58,0,0,0,0-3.15Z"/><path class="cls-1" d="M107.61,22.54H25.27A1.43,1.43,0,0,0,23.85,24V72.32a1.43,1.43,0,0,0,1.42,1.43H91.46L90.4,70.9H26.7V25.39h79.48V63.53l2.85,1V24A1.43,1.43,0,0,0,107.61,22.54Z"/><path class="cls-1" d="M121.32,77.18h-4.46V20.32a4,4,0,0,0-4-4H20a4,4,0,0,0-4,4V77.18H11.56a1.42,1.42,0,0,0-1.43,1.42v3.8a4.06,4.06,0,0,0,4.06,4.06h93l-2.86-2.85h-3.23l-1,1a3,3,0,0,1-2.82.82,3,3,0,0,1-2.15-1.81H80.34V80H93.82l-1.07-2.85H18.87V20.32A1.13,1.13,0,0,1,20,19.19h92.9A1.13,1.13,0,0,1,114,20.32v47a2.86,2.86,0,0,1,.45,1.06,3,3,0,0,1-.45,2.31v6l1.78,1.78a3,3,0,0,1,.83,1.54h3.28V82.4a1.21,1.21,0,0,1-1.21,1.21H115l-2.85,2.85h6.54a4.06,4.06,0,0,0,4.06-4.06V78.6A1.42,1.42,0,0,0,121.32,77.18ZM55.39,80.33h22.1v3H55.39ZM52.54,80v3.58H14.19A1.21,1.21,0,0,1,13,82.4V80H52.54Z"/><path class="cls-2" d="M114.43,79.64a1.41,1.41,0,0,1,0,2l-3.94,3.94a1.38,1.38,0,0,1-1,.42,1.41,1.41,0,0,1-1-.42l-5.91-5.91-3.76,3.76a1.48,1.48,0,0,1-1.32.39,1.43,1.43,0,0,1-1-.91L88.37,61.43a1.47,1.47,0,0,1,.34-1.53,1.44,1.44,0,0,1,1.52-.32l21.53,8a1.43,1.43,0,0,1,.52,2.36l-3.76,3.75Zm-5,2.91,1.91-1.9-5.91-5.9a1.41,1.41,0,0,1,0-2l3.19-3.19L92.18,63.37l6.16,16.47,3.2-3.18a1.39,1.39,0,0,1,1-.43,1.42,1.42,0,0,1,1,.43Z"/><path class="cls-3" d="M111.39,80.65l-1.91,1.9-5.91-5.89a1.42,1.42,0,0,0-1-.43,1.39,1.39,0,0,0-1,.43l-3.2,3.18L92.18,63.37l16.49,6.16-3.19,3.19a1.41,1.41,0,0,0,0,2Z"/><path class="cls-4" d="M109.48,82.55l-5.91-5.89a1.42,1.42,0,0,0-1-.43,1.39,1.39,0,0,0-1,.43l-3.2,3.18L92.18,63.37l16.49,6.16-3.19,3.19a1.41,1.41,0,0,0,0,2l5.91,5.9Z"/></g></g></svg>