<svg xmlns="http://www.w3.org/2000/svg" viewBox="0 0 136.3 70.37"><defs><style>.cls-1{fill:none;stroke:#006f69;stroke-width:2.5px;}.cls-1,.cls-2{stroke-linecap:round;stroke-linejoin:round;}.cls-2{fill:#a8de00;stroke:#fff;stroke-width:0.5px;}</style></defs><title>icon_howworks_2</title><g id="Layer_2" data-name="Layer 2"><g id="specifications"><polyline class="cls-1" points="48.55 33.09 58.64 44.91 78.11 18.33"/><path class="cls-2" d="M5.11,38.85h23a1.58,1.58,0,1,0,0-3.15h-23a1.58,1.58,0,0,0,0,3.15Z"/><path class="cls-2" d="M118,25l-11,0h0a1.57,1.57,0,0,0-1.57,1.57l0,11.72a1.59,1.59,0,0,0,1.58,1.58l17.07,0h0a1.57,1.57,0,0,0,1.4-2.29l-6-11.74A1.61,1.61,0,0,0,118,25Zm-9.51,11.7,0-8.57,8.52,0,4.38,8.59Z"/><path class="cls-2" d="M135.8,37.58,123.51,18.64a1.56,1.56,0,0,0-1.32-.72l-20.09-.05L102.15,2a1.55,1.55,0,0,0-.46-1.11,1.54,1.54,0,0,0-1.11-.47L11.94.25h0a1.57,1.57,0,0,0-1.58,1.57l-.09,31.67h3.15L13.51,3.4,99,3.61l-.17,56.7-53.56-.13a9.62,9.62,0,0,0-19.24,0l-12.69,0,0-15.23h4.87a1.58,1.58,0,0,0,0-3.15H1.83a1.58,1.58,0,1,0,0,3.15h8.4l-.05,16.79a1.62,1.62,0,0,0,.46,1.12,1.57,1.57,0,0,0,1.12.46l14.67,0a9.64,9.64,0,0,0,18.43,0l55.54.14h0A1.58,1.58,0,0,0,102,61.9V60.35h3s0,.08,0,.12a9.64,9.64,0,1,0,19.28,0s0,0,0-.07l10.14,0h0A1.59,1.59,0,0,0,136,58.86l.05-20.41A1.66,1.66,0,0,0,135.8,37.58ZM35.65,67a6.49,6.49,0,1,1,6.49-6.49A6.5,6.5,0,0,1,35.65,67Zm79,0a6.49,6.49,0,1,1,6.49-6.49A6.5,6.5,0,0,1,114.65,67Zm18.2-9.69-9.13,0a9.62,9.62,0,0,0-18.13,0H102l.1-36.18,19.24.05L132.9,38.91Z"/></g></g></svg>