<svg width="23" height="24" viewBox="0 0 23 24" fill="none" xmlns="http://www.w3.org/2000/svg">
<path d="M22.9259 6.79987C22.913 5.83254 22.732 4.87482 22.3908 3.96957C22.0949 3.20599 21.643 2.51253 21.064 1.93348C20.4849 1.35443 19.7915 0.902542 19.0279 0.606675C18.1343 0.271225 17.1902 0.0898406 16.2359 0.0702466C15.0072 0.0153266 14.6177 0 11.4987 0C8.37978 0 7.98001 8.56436e-08 6.76027 0.0702466C5.8064 0.0899846 4.86278 0.271366 3.96957 0.606675C3.20587 0.902335 2.5123 1.35416 1.93323 1.93323C1.35416 2.5123 0.902335 3.20587 0.606675 3.96957C0.270553 4.86251 0.089562 5.80634 0.0715238 6.76027C0.0166037 7.99023 0 8.37978 0 11.4987C0 14.6177 -9.51596e-09 15.0162 0.0715238 16.2372C0.0906819 17.1925 0.270768 18.1351 0.606675 19.0304C0.902831 19.7939 1.35499 20.4872 1.93425 21.066C2.51352 21.6448 3.20716 22.0965 3.97085 22.392C4.86162 22.741 5.8054 22.9353 6.76155 22.9668C7.9915 23.0217 8.38105 23.0383 11.5 23.0383C14.6189 23.0383 15.0187 23.0383 16.2385 22.9668C17.1927 22.948 18.1368 22.767 19.0304 22.4316C19.7938 22.1354 20.4871 21.6834 21.0661 21.1044C21.6451 20.5254 22.0971 19.8321 22.3933 19.0687C22.7292 18.1747 22.9093 17.2321 22.9285 16.2755C22.9834 15.0468 23 14.6573 23 11.537C22.9974 8.41809 22.9974 8.02216 22.9259 6.79987ZM11.4911 17.3969C8.22907 17.3969 5.58652 14.7543 5.58652 11.4923C5.58652 8.23034 8.22907 5.58779 11.4911 5.58779C13.057 5.58779 14.5589 6.20988 15.6662 7.3172C16.7735 8.42451 17.3956 9.92635 17.3956 11.4923C17.3956 13.0583 16.7735 14.5602 15.6662 15.6675C14.5589 16.7748 13.057 17.3969 11.4911 17.3969ZM17.6306 6.74622C16.8681 6.74622 16.2538 6.13061 16.2538 5.36939C16.2538 5.18867 16.2894 5.00971 16.3585 4.84275C16.4277 4.67578 16.5291 4.52407 16.6569 4.39628C16.7846 4.26848 16.9364 4.16711 17.1033 4.09795C17.2703 4.02879 17.4492 3.9932 17.63 3.9932C17.8107 3.9932 17.9896 4.02879 18.1566 4.09795C18.3236 4.16711 18.4753 4.26848 18.6031 4.39628C18.7309 4.52407 18.8322 4.67578 18.9014 4.84275C18.9706 5.00971 19.0062 5.18867 19.0062 5.36939C19.0062 6.13061 18.3905 6.74622 17.6306 6.74622Z" fill="black"/>
<path d="M11.4911 15.3279C13.6094 15.3279 15.3266 13.6107 15.3266 11.4924C15.3266 9.37415 13.6094 7.65695 11.4911 7.65695C9.37283 7.65695 7.65564 9.37415 7.65564 11.4924C7.65564 13.6107 9.37283 15.3279 11.4911 15.3279Z" fill="black"/>
</svg>
